# xmcd
#
# Track frame offsets: 
#        150
#        12556
#        25711
#        38622
#        51927
#        70793
#        86536
#        103713
#        121731
#        141138
#        156472
#        175399
#        189537
#        205338
#        220004
#        236322
#        255012
#        272193
#
# Disc length: 3866 seconds
#
# Revision: 0
# Processed by: cddbd v1.5.2PL0 Copyright (c) Steve Scherf et al.
# Submitted via: ExactAudioCopyFreeDBPlugin 1.0
#
DISCID=f20f1812
DTITLE=Crystal Gayle - Straight To The Heart(The Best of) CD 2
DYEAR=2008
DGENRE=Country
TTITLE0=Don't It Make My Brown Eyes Blue
TTITLE1=Talking In Your Sleep
TTITLE2=Me Against The Night
TTITLE3=Turning Away
TTITLE4=Cage The Songbird
TTITLE5=A Long And Lasting Love
TTITLE6=Nobody Wants To Be Alone
TTITLE7=Straight To The Heart
TTITLE8=Cry
TTITLE9=Only Love Can Save Me Now
TTITLE10=Nobody Should Have To Love This Way
TTITLE11=Nobody's Angel
TTITLE12=Tennessee Nights
TTITLE13=Heart and Soul
TTITLE14=Stardust
TTITLE15=Georgia On My Mind
TTITLE16=Rockin' Chair
TTITLE17=Skylark
EXTD=
EXTT0=
EXTT1=
EXTT2=
EXTT3=
EXTT4=
EXTT5=
EXTT6=
EXTT7=
EXTT8=
EXTT9=
EXTT10=
EXTT11=
EXTT12=
EXTT13=
EXTT14=
EXTT15=
EXTT16=
EXTT17=
PLAYORDER=
